<svg width="32" height="32" viewBox="0 0 32 32" fill="none" xmlns="http://www.w3.org/2000/svg">
    <path
        d="M2.25163 18.7172C1.75399 18.7505 0.876465 18.7505 0.876465 19.8706C0.876465 20.9907 1.65656 21.1026 2.25163 21.1026C3.21703 21.1026 3.47946 21.1026 3.47946 21.1026C3.87488 21.1026 4.25297 21.9752 4.4876 22.3411C4.91769 23.0118 5.44163 23.571 6.04209 23.9984C6.05525 24.0135 6.0684 24.0135 6.08155 24.0286C6.13176 24.0719 6.19422 24.1014 6.24533 24.1436L6.29436 24.1748C6.36638 24.2115 6.41092 24.2479 6.47458 24.2847C6.50088 24.2998 6.54004 24.3149 6.56634 24.3447C6.61864 24.3749 6.67125 24.4048 6.71041 24.42C6.7367 24.435 6.7627 24.4501 6.78901 24.4649C7.54907 24.8562 8.40062 25.0666 9.27839 25.0666H26.1149C27.3466 25.0516 28.3554 24.6002 29.1414 23.8779C29.1546 23.8628 29.1677 23.8628 29.1809 23.8477C29.2072 23.8326 29.22 23.8027 29.2463 23.7876C29.2595 23.7725 29.2727 23.7725 29.2727 23.7574C29.3381 23.6823 29.4167 23.6071 29.4821 23.5316C29.5084 23.5013 29.5476 23.4715 29.5739 23.4262C29.6002 23.3812 29.6394 23.351 29.6657 23.3057C29.692 23.2755 29.718 23.2305 29.7574 23.1852C29.8097 23.1251 29.8623 23.0496 29.9015 22.9744C29.9278 22.9442 29.9538 22.8992 29.9801 22.869C30.0195 22.8089 30.0456 22.7636 30.085 22.7036C30.0981 22.6734 30.1113 22.6435 30.1373 22.6284C30.1896 22.5381 30.2422 22.4328 30.2945 22.3274C30.3077 22.2972 30.3208 22.2673 30.3468 22.2371C30.3863 22.1619 30.4255 22.0717 30.4517 21.9965C30.478 21.9364 30.5041 21.8609 30.5304 21.8008C30.5435 21.7555 30.5698 21.7105 30.5827 21.6652C30.6221 21.5598 30.6613 21.4393 30.7007 21.3192C30.7007 21.3192 30.7007 21.3041 30.7139 21.3041V21.289C31.0546 20.1305 31.1069 18.8662 30.8448 17.6926C30.8185 17.5721 30.7925 17.4667 30.753 17.3617C30.753 17.3465 30.7399 17.3163 30.7267 17.3016C30.7136 17.2415 30.6873 17.1811 30.6613 17.1059C30.6481 17.0459 30.6221 17.0005 30.609 16.9405C30.609 16.9253 30.5958 16.9103 30.5958 16.9103C30.4909 16.6243 30.36 16.3535 30.2291 16.1276C29.7966 15.345 29.1677 14.6831 28.3423 14.2314C28.1456 14.1109 27.9229 14.0055 27.6871 13.9304C27.6739 13.6142 27.6476 13.3135 27.6085 13.0275C27.5167 12.3204 27.3595 11.8989 27.3595 11.8989C27.2286 11.4173 27.0451 10.9961 26.8355 10.6199C26.8092 10.5749 26.7961 10.5296 26.7701 10.4994C26.7569 10.4843 26.7569 10.4692 26.7438 10.4692C26.4425 9.91237 26.0623 9.41573 25.6433 8.99454C25.3811 8.72368 25.2108 8.58807 25.2108 8.58807C23.7564 7.354 21.8304 6.87277 19.9176 7.48961C19.8781 7.39937 18.1619 4.08887 14.349 4.08887C12.6869 4.08887 10.8236 4.74931 9.88785 5.99675C9.42517 6.6136 9.37766 6.98948 9.0226 6.98948H5.35347C4.77721 6.98948 4.38716 7.32556 4.38716 7.77349C4.38716 8.22149 4.77722 8.44563 5.22614 8.42088H10.5941C10.9501 8.42088 11.2607 8.73605 11.2714 9.14487C11.2824 9.56776 10.9871 9.91443 10.6216 9.91443H8.35693C8.0569 9.91443 7.79985 10.165 7.75498 10.5056C7.74065 10.613 7.72841 10.7218 7.71797 10.8317C7.69223 11.1039 7.4962 11.3126 7.25794 11.3126H2.61926C2.02508 11.3126 1.51548 11.8464 1.50472 12.5288C1.49366 13.2239 1.98084 13.7913 2.58369 13.7913H11.5586C11.7284 13.7913 11.8913 13.7138 12.0111 13.5761L14.7944 10.3796L16.0521 11.824C16.0521 11.824 16.2616 12.0647 16.6286 12.4862L16.9167 12.8171C17.467 13.4491 18.2402 14.3371 19.1049 15.3302L21.2667 12.8473L23.2845 15.1648L24.6079 16.6847L26.3636 18.7011H7.56166C7.6402 18.6108 7.75832 18.4752 7.87603 18.3249L9.85349 16.0538C10.0188 15.864 9.90163 15.5392 9.66789 15.5392H2.73403C2.39331 15.5392 2.09592 15.841 2.08575 16.2323C2.07529 16.6373 2.35774 16.9693 2.70803 16.9693H4.75719C5.16247 16.9693 5.51635 17.3204 5.54236 17.7849C5.57105 18.294 5.22016 18.7169 4.78319 18.7169"
        fill="#155BCD" />
</svg>
    