<svg width="32" height="32" viewBox="0 0 33 33" fill="none" xmlns="http://www.w3.org/2000/svg">
    <path opacity="0.999" fill-rule="evenodd" clip-rule="evenodd"
        d="M16.0339 0.392081C18.0845 0.295829 20.1301 0.595052 22.1708 1.28975C25.1966 2.37716 27.7028 4.22193 29.689 6.8241C32.2662 10.3695 33.2617 14.3453 32.6754 18.7514C32.2394 21.5149 31.1892 23.9815 29.5248 26.1514C27.2148 29.0605 24.2956 30.9729 20.7673 31.8887C17.595 32.6702 14.4493 32.5088 11.3304 31.4047C8.13258 30.2084 5.54192 28.1815 3.55838 25.324C1.31676 21.9184 0.460674 18.1769 0.99011 14.0992C1.567 10.4539 3.1373 7.38103 5.70109 4.88045C8.19768 2.51927 11.1243 1.0778 14.481 0.556004C15.0034 0.485357 15.5211 0.430716 16.0339 0.392081Z"
        fill="#873EFF" />
    <path fill-rule="evenodd" clip-rule="evenodd"
        d="M11.0315 9.24415C11.0615 9.26638 11.0965 9.27678 11.136 9.27537C11.8571 9.49859 12.295 9.99816 12.45 10.7741C12.4533 10.8142 12.4633 10.8506 12.4799 10.8834C12.4799 10.899 12.4799 10.9146 12.4799 10.9302C12.4853 10.98 12.4953 11.0268 12.5097 11.0707C12.5284 11.2261 12.5408 11.3823 12.5471 11.5391C12.552 13.5322 12.5571 15.5252 12.562 17.5184C12.878 16.8836 13.189 16.2488 13.4952 15.6137C13.5224 15.5884 13.5423 15.5572 13.555 15.5201C14.3008 13.9709 15.0549 12.4254 15.8171 10.8834C16.032 10.4578 16.3032 10.0753 16.6309 9.73592C17.0018 9.40882 17.4299 9.22148 17.9151 9.1739C18.4262 9.09339 18.9289 9.12981 19.4232 9.28318C19.5163 9.32713 19.611 9.36876 19.7069 9.40807C19.8321 9.47943 19.9467 9.5653 20.0503 9.66567C20.0664 9.69825 20.0914 9.71906 20.125 9.72811C20.2938 9.91408 20.4257 10.1274 20.5206 10.3682C20.6607 10.7386 20.7328 11.1237 20.7372 11.5235C20.7346 13.5322 20.7372 15.5408 20.7446 17.5496C20.7602 17.538 20.7676 17.5224 20.767 17.5027C21.8986 15.2721 23.0308 13.0397 24.164 10.8053C24.3717 10.4262 24.6281 10.0854 24.933 9.78275C25.3269 9.43898 25.7799 9.23603 26.2918 9.1739C26.7565 9.11821 27.2193 9.13122 27.6804 9.21293C27.7266 9.23299 27.7763 9.24339 27.8298 9.24415C27.8657 9.26395 27.9055 9.27436 27.9492 9.27537C27.9792 9.2976 28.0142 9.308 28.0537 9.3066C28.47 9.43272 28.8109 9.6721 29.0766 10.0247C29.186 10.2196 29.2581 10.4278 29.2931 10.6492C29.3064 10.7944 29.3113 10.9401 29.308 11.0863C29.2946 11.1315 29.2895 11.1783 29.2931 11.2268C29.264 11.3385 29.239 11.453 29.2184 11.5703C29.1076 11.9008 28.9683 12.2182 28.8003 12.5226C27.0875 15.5517 25.3678 18.5751 23.6414 21.593C23.389 22.0078 23.0979 22.3903 22.7679 22.7405C22.4466 23.043 22.0833 23.2694 21.6779 23.4196C21.6232 23.423 21.5733 23.4386 21.5285 23.4664C21.483 23.4752 21.4382 23.4856 21.3942 23.4976C21.3504 23.4987 21.3107 23.509 21.2747 23.5289C20.7445 23.6224 20.2119 23.6406 19.677 23.5835C19.4844 23.5593 19.2953 23.5203 19.1096 23.4664C19.0732 23.445 19.0334 23.4294 18.9901 23.4196C18.5795 23.2936 18.2212 23.0803 17.9151 22.7795C17.8653 22.7171 17.8105 22.6598 17.7508 22.6078C17.4687 22.278 17.2646 21.9034 17.1386 21.4837C17.1399 21.4424 17.1299 21.4058 17.1087 21.3744C17.0535 21.1548 17.0162 20.9311 16.9967 20.7031C16.9967 19.4259 16.9867 18.1511 16.9669 16.8783C16.264 18.2699 15.5572 19.6593 14.8466 21.0466C14.6511 21.4049 14.4421 21.7535 14.2194 22.0926C13.9198 22.5152 13.559 22.8665 13.1369 23.1464C12.8602 23.3086 12.5665 23.4257 12.2559 23.4976C12.2122 23.4987 12.1724 23.509 12.1365 23.5289C11.2583 23.7162 10.4021 23.6408 9.56818 23.3025C8.85011 22.9604 8.35244 22.4062 8.075 21.6398C8.06351 21.5829 8.04365 21.5309 8.01528 21.4837C7.92121 21.127 7.86895 20.7626 7.85849 20.3909C7.85103 17.9191 7.84849 15.4471 7.85103 12.9753C7.25868 12.978 6.66649 12.9753 6.07415 12.9675C5.81657 12.9418 5.56766 12.882 5.32756 12.788C5.30247 12.7645 5.27261 12.7489 5.23797 12.7412C4.70983 12.4701 4.4088 12.0278 4.33459 11.4142C4.32713 11.1592 4.32459 10.9043 4.32713 10.6492C4.34071 10.6155 4.35057 10.5791 4.35699 10.5399C4.35624 10.5024 4.36117 10.466 4.37192 10.4306C4.39731 10.377 4.41731 10.3197 4.43165 10.2589C4.60321 9.81679 4.90185 9.50715 5.32756 9.33001C5.59782 9.22771 5.8766 9.16526 6.16374 9.14267C7.5176 9.13226 8.87132 9.13226 10.2252 9.14267C10.3645 9.15309 10.504 9.16348 10.6433 9.1739C10.7724 9.20038 10.9017 9.22379 11.0315 9.24415Z"
        fill="#FEFEFF" />
</svg>