<svg width="32" height="32" viewBox="0 0 32 32" fill="none" xmlns="http://www.w3.org/2000/svg">
    <g clip-path="url(#clip0_5147_45)">
        <path fill-rule="evenodd" clip-rule="evenodd"
            d="M-0.0400391 -0.0400391C10.6266 -0.0400391 21.2933 -0.0400391 31.96 -0.0400391C31.96 10.6266 31.96 21.2933 31.96 31.96C21.2933 31.96 10.6266 31.96 -0.0400391 31.96C-0.0400391 21.2933 -0.0400391 10.6266 -0.0400391 -0.0400391Z"
            fill="#020202" />
        <path fill-rule="evenodd" clip-rule="evenodd"
            d="M14.8401 5.80002C16.5965 5.60326 18.3032 5.82992 19.9601 6.48002C20.1078 6.5624 20.2411 6.65573 20.3601 6.76002C20.1137 6.7402 19.8737 6.68687 19.6401 6.60002C19.5077 6.65826 19.3744 6.6716 19.2401 6.64002C19.4303 6.56206 19.4036 6.50873 19.1601 6.48002C19.3734 6.42668 19.3734 6.37336 19.1601 6.32002C18.8621 6.25923 18.5687 6.27256 18.2801 6.36002C18.0476 6.31308 17.9143 6.17974 17.8801 5.96002C17.6401 5.96002 17.4001 5.96002 17.1601 5.96002C17.099 5.89859 17.019 5.85859 16.9201 5.84002C16.2273 5.80004 15.5339 5.78671 14.8401 5.80002Z"
            fill="#DDAC3B" />
        <path fill-rule="evenodd" clip-rule="evenodd"
            d="M13.6399 6.04004C13.5896 6.25035 13.4563 6.38369 13.2399 6.44004C13.1535 6.63974 13.0468 6.8264 12.9199 7.00004C13.0736 7.09132 13.2336 7.10466 13.3999 7.04004C13.5128 6.84982 13.6061 6.64982 13.6799 6.44004C13.805 6.53806 13.8983 6.65806 13.9599 6.80004C13.8703 6.93903 13.7903 7.0857 13.7199 7.24004C13.8665 7.28458 13.9731 7.36458 14.0399 7.48004C13.8391 7.62631 13.7059 7.82631 13.6399 8.08004C13.6958 8.341 13.7758 8.59428 13.8799 8.84004C13.7595 8.9474 13.7062 9.08068 13.7199 9.24004C13.8266 9.24004 13.9333 9.24004 14.0399 9.24004C14.1035 9.35404 14.0502 9.67404 13.8799 10.2C13.706 10.1664 13.546 10.1664 13.3999 10.2C13.2864 9.91916 13.1531 9.65252 12.9999 9.40004C13.0351 9.27172 13.0884 9.15172 13.1599 9.04004C13.1319 8.93948 13.0786 8.91276 12.9999 8.96004C12.9527 9.08076 12.8995 9.20076 12.8399 9.32004C12.7999 9.14764 12.7199 9.01428 12.5999 8.92004C12.5555 8.57284 12.5021 8.2262 12.4399 7.88004C12.5966 7.52009 12.7032 7.14675 12.7599 6.76004C12.9831 6.42978 13.2765 6.18978 13.6399 6.04004Z"
            fill="#FAAE44" />
        <path fill-rule="evenodd" clip-rule="evenodd"
            d="M14.8399 5.8001C15.5338 5.78679 16.2271 5.80012 16.9199 5.8401C17.0189 5.85867 17.0989 5.89867 17.1599 5.9601C17.2342 6.0253 17.3142 6.09196 17.3999 6.1601C16.5206 6.28346 15.6406 6.31013 14.7599 6.2401C14.7333 6.26677 14.7066 6.29344 14.6799 6.3201C15.3194 6.36008 15.9594 6.37342 16.5999 6.3601C16.5999 6.4401 16.5999 6.5201 16.5999 6.6001C16.9682 6.51039 17.1949 6.64373 17.2799 7.0001C17.313 6.96351 17.353 6.93685 17.3999 6.9201C17.5458 7.01988 17.7058 7.07322 17.8799 7.0801C17.8799 7.1601 17.8799 7.2401 17.8799 7.3201C18.0421 7.30714 18.2021 7.32046 18.3599 7.3601C18.4269 7.44101 18.4535 7.53434 18.4399 7.6401C18.4133 7.6401 18.3866 7.6401 18.3599 7.6401C18.3668 7.56043 18.3401 7.49377 18.2799 7.4401C16.9873 7.23306 15.6806 7.19306 14.3599 7.3201C14.3309 7.37478 14.3042 7.42811 14.2799 7.4801C14.2533 7.4801 14.2266 7.4801 14.1999 7.4801C14.1466 7.4801 14.0933 7.4801 14.0399 7.4801C13.9731 7.36465 13.8665 7.28465 13.7199 7.2401C13.7903 7.08577 13.8703 6.9391 13.9599 6.8001C13.8983 6.65812 13.805 6.53812 13.6799 6.4401C13.6061 6.64988 13.5128 6.84988 13.3999 7.0401C13.2336 7.10472 13.0736 7.09138 12.9199 7.0001C13.0468 6.82646 13.1535 6.6398 13.2399 6.4401C13.4563 6.38375 13.5896 6.25042 13.6399 6.0401C14.0084 5.85004 14.4084 5.77004 14.8399 5.8001Z"
            fill="#FBB537" />
        <path fill-rule="evenodd" clip-rule="evenodd"
            d="M18.36 7.64002C17.0127 7.28426 15.6527 7.23093 14.28 7.48002C14.3043 7.42803 14.331 7.3747 14.36 7.32002C15.6807 7.19298 16.9874 7.23298 18.28 7.44002C18.3402 7.49369 18.3669 7.56035 18.36 7.64002Z"
            fill="#D7A045" />
        <path fill-rule="evenodd" clip-rule="evenodd"
            d="M18.36 7.64005C18.3866 7.64005 18.4133 7.64005 18.44 7.64005C18.9205 7.81493 19.4005 8.01493 19.88 8.24005C20.2724 8.48717 20.6724 8.71389 21.08 8.92005C22.5994 10.1177 23.666 11.6377 24.28 13.48C24.6342 14.8809 24.6876 16.2942 24.44 17.72C24.3866 17.9867 24.3333 18.2534 24.28 18.52C24.1328 18.8949 23.9595 19.2683 23.76 19.64C23.6684 19.7309 23.575 19.8109 23.48 19.88C21.72 19.88 19.96 19.88 18.2 19.88C18.129 19.5665 18.0223 19.2732 17.88 19C17.88 18.9734 17.88 18.9467 17.88 18.92C17.6176 18.0717 17.3244 17.2317 17 16.4C17.5029 15.9889 18.0362 15.6289 18.6 15.32C19.0934 15.1136 19.5468 14.8469 19.96 14.52C20.2963 14.3974 20.5629 14.184 20.76 13.88C21.0436 13.5223 21.1769 13.1089 21.16 12.64C21.1722 12.25 21.0922 11.89 20.92 11.56C20.7269 11.1802 20.4336 10.9136 20.04 10.76C20.0133 10.7067 19.9866 10.6534 19.96 10.6C19.8384 10.5272 19.7052 10.4606 19.56 10.4C17.9602 10.36 16.3602 10.3467 14.76 10.36C14.6986 10.0681 14.592 9.80149 14.44 9.56005C14.2926 9.05117 14.1326 8.54453 13.96 8.04005C13.9756 7.8226 14.0556 7.63594 14.2 7.48005C14.2266 7.48005 14.2533 7.48005 14.28 7.48005C15.6526 7.23095 17.0126 7.28429 18.36 7.64005Z"
            fill="#050303" />
        <path fill-rule="evenodd" clip-rule="evenodd"
            d="M18.4399 7.64014C18.8929 7.67768 19.3463 7.71768 19.7999 7.76014C20.0743 7.90214 20.341 7.99548 20.5999 8.04014C20.5349 8.14526 20.4549 8.23862 20.3599 8.32014C20.5929 8.41934 20.8063 8.55262 20.9999 8.72014C21.0601 8.77382 21.0868 8.84046 21.0799 8.92014C20.6724 8.71398 20.2724 8.48726 19.8799 8.24014C19.4005 8.01502 18.9205 7.81502 18.4399 7.64014Z"
            fill="#E8AE36" />
        <path fill-rule="evenodd" clip-rule="evenodd"
            d="M12.7601 6.75977C12.7034 7.14648 12.5967 7.51981 12.4401 7.87977C12.5023 8.22593 12.5556 8.57257 12.6001 8.91977C12.3756 8.47249 12.3089 7.99247 12.4001 7.47977C12.4613 7.20117 12.5813 6.96117 12.7601 6.75977Z"
            fill="#D8A359" />
        <path fill-rule="evenodd" clip-rule="evenodd"
            d="M12.9999 10.2798C13.1066 10.3331 13.1066 10.3864 12.9999 10.4398C11.4799 10.4398 9.95994 10.4398 8.43994 10.4398C9.95994 10.3864 11.4799 10.3331 12.9999 10.2798Z"
            fill="#3D1A00" />
        <path fill-rule="evenodd" clip-rule="evenodd"
            d="M14.76 10.36C16.3602 10.3466 17.9602 10.36 19.56 10.4C19.7052 10.4606 19.8385 10.5272 19.96 10.6C19.7658 10.5982 19.5792 10.5582 19.4 10.48C17.8397 10.4666 16.293 10.4266 14.76 10.36Z"
            fill="#361A01" />
        <path fill-rule="evenodd" clip-rule="evenodd"
            d="M14.44 9.56006C14.592 9.8015 14.6987 10.0681 14.76 10.3601C16.293 10.4266 17.8397 10.4666 19.4 10.4801C19.5792 10.5582 19.7659 10.5982 19.96 10.6001C19.9867 10.6534 20.0134 10.7067 20.04 10.7601C19.8224 10.723 19.609 10.6697 19.4 10.6001C17.8532 10.6134 16.3064 10.6001 14.76 10.5601C14.5396 10.2668 14.4329 9.93342 14.44 9.56006Z"
            fill="#E8AB56" />
        <path fill-rule="evenodd" clip-rule="evenodd"
            d="M8.43988 10.4399C9.95988 10.4399 11.4799 10.4399 12.9999 10.4399C12.962 10.5524 12.882 10.6058 12.7599 10.5999C11.3336 10.507 9.89356 10.4936 8.43988 10.5599C8.17188 10.6788 7.9052 10.7722 7.63988 10.8399C7.27956 10.9067 7.0929 11.1199 7.07988 11.4799C6.99988 11.4799 6.91988 11.4799 6.83988 11.4799C6.8228 11.6115 6.84947 11.7315 6.91988 11.8399C6.83331 11.9463 6.77998 12.0663 6.75988 12.1999C6.72522 12.4207 6.59188 12.5273 6.35988 12.5199C6.30655 12.9199 6.25322 13.3199 6.19988 13.7199C6.12977 13.7095 6.07643 13.7361 6.03988 13.7999C5.99451 13.9985 5.94119 14.1852 5.87988 14.3599C6.00043 13.2907 6.3071 12.2774 6.79988 11.3199C7.21632 10.7851 7.76299 10.4917 8.43988 10.4399Z"
            fill="#DB966D" />
        <path fill-rule="evenodd" clip-rule="evenodd"
            d="M19.4001 10.6001C19.6091 10.6698 19.8224 10.7231 20.0401 10.7601C20.4337 10.9136 20.7271 11.1803 20.9201 11.5601C20.9784 11.9186 21.0318 12.2786 21.0801 12.6401C21.0416 13.0739 20.935 13.4873 20.7601 13.8801C20.5631 14.1841 20.2964 14.3975 19.9601 14.5201C19.7138 14.3851 19.4471 14.2784 19.1601 14.2001C19.1695 14.0414 19.1161 13.9081 19.0001 13.8001C19.2108 13.4959 19.4375 13.2025 19.6801 12.9201C19.7554 12.721 19.7154 12.561 19.5601 12.4401C19.5067 12.3335 19.4535 12.2267 19.4001 12.1201C19.3758 12.0681 19.3491 12.0147 19.3201 11.9601C18.8431 11.8804 18.3631 11.8538 17.8801 11.8801C17.8777 11.8003 17.9177 11.747 18.0001 11.7201C18.1709 11.6699 18.3443 11.6299 18.5201 11.6001C18.3867 11.5735 18.2535 11.5467 18.1201 11.5201C18.2001 11.4935 18.2801 11.4667 18.3601 11.4401C17.7791 11.3348 17.1924 11.2682 16.6001 11.2401C16.6001 11.1601 16.6001 11.0801 16.6001 11.0001C16.8579 11.0315 17.0979 10.9915 17.3201 10.8801C17.1867 10.8535 17.0535 10.8267 16.9201 10.8001C16.9735 10.7735 17.0267 10.7467 17.0801 10.7201C17.8675 10.7065 18.6408 10.6665 19.4001 10.6001Z"
            fill="#FBB33B" />
        <path fill-rule="evenodd" clip-rule="evenodd"
            d="M12.76 10.6C12.3059 10.5867 11.8525 10.6 11.4 10.64C11.88 10.6666 12.36 10.6933 12.84 10.72C12.3874 10.7599 11.9341 10.7732 11.48 10.76C11.48 10.84 11.48 10.92 11.48 11C11.9506 11.0212 12.4173 11.0744 12.88 11.16C12.9819 11.2428 13.0752 11.3361 13.16 11.44C13.0421 11.4968 12.9888 11.59 13 11.72C13.1587 11.7293 13.292 11.676 13.4 11.56C13.358 11.5046 13.3046 11.4646 13.24 11.44C13.3322 11.2893 13.4655 11.2227 13.64 11.24C13.6185 11.4495 13.6452 11.6495 13.72 11.84C13.9866 11.8533 14.2533 11.8666 14.52 11.88C14.8286 11.8736 15.1219 11.8203 15.4 11.72C15.4709 11.786 15.4975 11.866 15.48 11.96C15.4266 11.9866 15.3733 12.0133 15.32 12.04C14.8133 12.04 14.3066 12.04 13.8 12.04C13.7466 12.0133 13.6933 11.9866 13.64 11.96C11.866 11.8995 10.0793 11.8461 8.27998 11.8C8.27998 11.6933 8.27998 11.5866 8.27998 11.48C8.14662 11.48 8.01334 11.48 7.87998 11.48C7.87998 11.5866 7.87998 11.6933 7.87998 11.8C7.79998 11.8 7.71998 11.8 7.63998 11.8C7.60272 12.206 7.54939 12.1927 7.47998 11.76C7.49984 11.6227 7.55318 11.5027 7.63998 11.4C7.8469 11.3216 8.06022 11.2949 8.27998 11.32C8.27998 11.24 8.27998 11.16 8.27998 11.08C8.06662 11.08 7.85332 11.08 7.63998 11.08C7.63998 11 7.63998 10.92 7.63998 10.84C7.9053 10.7722 8.17198 10.6788 8.43998 10.56C9.89366 10.4936 11.3337 10.507 12.76 10.6Z"
            fill="#FDA359" />
        <path fill-rule="evenodd" clip-rule="evenodd"
            d="M14.0399 7.47998C14.0933 7.47998 14.1465 7.47998 14.1999 7.47998C14.0555 7.63587 13.9755 7.82253 13.9599 8.03998C14.1325 8.54446 14.2925 9.0511 14.4399 9.55998C14.3399 9.55382 14.2733 9.50046 14.2399 9.39998C14.2387 9.71318 14.1721 10.0065 14.0399 10.28C14.3512 10.5907 14.7112 10.7241 15.1199 10.68C15.2223 10.689 15.2889 10.7424 15.3199 10.84C15.6153 10.9001 15.9085 10.9669 16.1999 11.04C15.7717 11.1869 15.345 11.1737 14.9199 11C14.7246 11.0029 14.5646 11.0695 14.4399 11.2C14.722 11.3069 15.0153 11.3469 15.3199 11.32C15.302 11.6412 15.3953 11.6945 15.5999 11.48C15.75 11.5695 15.8166 11.7029 15.7999 11.88C16.4933 11.88 17.1865 11.88 17.8799 11.88C18.3629 11.8537 18.8429 11.8803 19.3199 11.96C19.3489 12.0146 19.3756 12.068 19.3999 12.12C19.3112 12.1154 19.2312 12.0888 19.1599 12.04C17.9473 11.9603 16.7206 11.9336 15.4799 11.96C15.4974 11.866 15.4708 11.786 15.3999 11.72C15.1218 11.8203 14.8285 11.8737 14.5199 11.88C14.2533 11.8666 13.9865 11.8533 13.7199 11.84C13.6451 11.6495 13.6185 11.4495 13.6399 11.24C13.4654 11.2227 13.3321 11.2893 13.2399 11.44C13.3045 11.4646 13.3579 11.5046 13.3999 11.56C13.2919 11.676 13.1586 11.7293 12.9999 11.72C12.9887 11.5901 13.0421 11.4968 13.1599 11.44C13.0751 11.3361 12.9818 11.2428 12.8799 11.16C12.4172 11.0745 11.9505 11.0212 11.4799 11C11.4799 10.92 11.4799 10.84 11.4799 10.76C11.934 10.7733 12.3873 10.7599 12.8399 10.72C12.3599 10.6933 11.8799 10.6666 11.3999 10.64C11.8525 10.6001 12.3058 10.5867 12.7599 10.6C12.8821 10.6058 12.9621 10.5525 12.9999 10.44C13.1065 10.3866 13.1065 10.3333 12.9999 10.28C12.8788 9.82206 12.7454 9.3687 12.5999 8.91998C12.7198 9.01422 12.7998 9.14758 12.8399 9.31998C12.8994 9.2007 12.9527 9.0807 12.9999 8.95998C13.0785 8.9127 13.1319 8.93942 13.1599 9.03998C13.0884 9.15166 13.035 9.27166 12.9999 9.39998C13.1531 9.65246 13.2864 9.9191 13.3999 10.2C13.546 10.1664 13.706 10.1664 13.8799 10.2C14.0501 9.67398 14.1034 9.35398 14.0399 9.23998C13.9333 9.23998 13.8265 9.23998 13.7199 9.23998C13.7061 9.08062 13.7595 8.94734 13.8799 8.83998C13.7757 8.59422 13.6957 8.34094 13.6399 8.07998C13.7058 7.82625 13.8391 7.62625 14.0399 7.47998Z"
            fill="#FAAB4D" />
        <path fill-rule="evenodd" clip-rule="evenodd"
            d="M14.44 9.5599C14.4329 9.93326 14.5396 10.2666 14.76 10.5599C16.3064 10.5999 17.8532 10.6133 19.4 10.5999C18.6408 10.6663 17.8674 10.7063 17.08 10.7199C17.0267 10.7465 16.9734 10.7733 16.92 10.7999C17.0534 10.8265 17.1867 10.8533 17.32 10.8799C17.0978 10.9913 16.8578 11.0313 16.6 10.9999C16.6 11.0799 16.6 11.1599 16.6 11.2399C17.1924 11.268 17.779 11.3346 18.36 11.4399C18.28 11.4665 18.2 11.4933 18.12 11.5199C18.2534 11.5465 18.3867 11.5733 18.52 11.5999C18.3442 11.6297 18.1708 11.6697 18 11.7199C17.9176 11.7468 17.8776 11.8001 17.88 11.8799C17.1867 11.8799 16.4934 11.8799 15.8 11.8799C15.8168 11.7028 15.7501 11.5694 15.6 11.4799C15.3955 11.6944 15.3021 11.6411 15.32 11.3199C15.0154 11.3469 14.7221 11.3069 14.44 11.1999C14.5648 11.0694 14.7248 11.0028 14.92 10.9999C15.3452 11.1736 15.7718 11.1869 16.2 11.0399C15.9087 10.9668 15.6154 10.9001 15.32 10.8399C15.2891 10.7423 15.2224 10.6889 15.12 10.6799C14.7113 10.724 14.3513 10.5906 14.04 10.2799C14.1722 10.0065 14.2388 9.7131 14.24 9.3999C14.2734 9.50038 14.34 9.55374 14.44 9.5599Z"
            fill="#FCAF42" />
        <path fill-rule="evenodd" clip-rule="evenodd"
            d="M8.52002 12.0401C10.2128 11.9603 11.9195 11.9336 13.64 11.9601C13.6934 11.9867 13.7467 12.0134 13.8 12.0401C13.8 12.1201 13.8 12.2001 13.8 12.2801C13.7387 12.2263 13.6853 12.1597 13.64 12.0801C11.9335 12.0401 10.2269 12.0267 8.52002 12.0401Z"
            fill="#9C6843" />
        <path fill-rule="evenodd" clip-rule="evenodd"
            d="M15.4801 11.96C16.7208 11.9336 17.9474 11.9604 19.1601 12.04C17.9334 12.04 16.7067 12.04 15.4801 12.04C15.5195 12.2245 15.5461 12.4112 15.5601 12.6C15.4471 12.4317 15.3671 12.2451 15.3201 12.04C15.3734 12.0134 15.4267 11.9867 15.4801 11.96Z"
            fill="#9C6C3A" />
        <path fill-rule="evenodd" clip-rule="evenodd"
            d="M17.1599 5.95996C17.3999 5.95996 17.6399 5.95996 17.8799 5.95996C17.9142 6.17968 18.0475 6.31302 18.2799 6.35996C18.5686 6.2725 18.8619 6.25917 19.1599 6.31996C19.3733 6.3733 19.3733 6.42662 19.1599 6.47996C19.4035 6.50867 19.4302 6.562 19.2399 6.63996C19.3743 6.67154 19.5075 6.6582 19.6399 6.59996C19.8735 6.68681 20.1135 6.74014 20.3599 6.75996C22.7807 7.84754 24.4607 9.6342 25.3999 12.12C25.3088 12.3203 25.2555 12.5336 25.2399 12.76C25.3199 12.76 25.3999 12.76 25.4799 12.76C25.468 12.6758 25.4813 12.5958 25.5199 12.52C25.5763 12.6622 25.6163 12.8089 25.6399 12.96C25.5033 13.4569 25.3566 13.9503 25.1999 14.44C25.1354 14.1565 25.0287 13.8898 24.8799 13.64C24.8666 13.7066 24.8533 13.7733 24.8399 13.84C24.9823 14.3787 25.0891 14.9254 25.1599 15.48C25.105 16.0524 25.0783 16.6124 25.0799 17.16C25.0306 17.1511 24.9906 17.1244 24.9599 17.08C24.9199 16.4939 24.9067 15.9072 24.9199 15.32C24.8399 15.32 24.7599 15.32 24.6799 15.32C24.7062 14.89 24.6795 14.4633 24.5999 14.04C24.5511 13.8058 24.4444 13.6192 24.2799 13.48C23.666 11.6376 22.5994 10.1176 21.0799 8.91996C21.0868 8.84028 21.0601 8.77364 20.9999 8.71996C20.8063 8.55244 20.5929 8.41916 20.3599 8.31996C20.4549 8.23844 20.5349 8.14508 20.5999 8.03996C20.341 7.9953 20.0743 7.90197 19.7999 7.75996C19.3463 7.7175 18.8929 7.6775 18.4399 7.63996C18.4535 7.53419 18.4269 7.44086 18.3599 7.35996C18.2021 7.32032 18.0421 7.30699 17.8799 7.31996C17.8799 7.23996 17.8799 7.15996 17.8799 7.07996C17.7058 7.07307 17.5458 7.01974 17.3999 6.91996C17.3531 6.9367 17.3131 6.96337 17.2799 6.99996C17.1949 6.64358 16.9683 6.51025 16.5999 6.59996C16.5999 6.51996 16.5999 6.43996 16.5999 6.35996C15.9594 6.37327 15.3194 6.35994 14.6799 6.31996C14.7066 6.2933 14.7333 6.26662 14.7599 6.23996C15.6407 6.30998 16.5207 6.28332 17.3999 6.15996C17.3143 6.09182 17.2343 6.02515 17.1599 5.95996Z"
            fill="#F9BB2B" />
        <path fill-rule="evenodd" clip-rule="evenodd"
            d="M7.64001 10.8398C7.64001 10.9198 7.64001 10.9998 7.64001 11.0798C7.85335 11.0798 8.06665 11.0798 8.28001 11.0798C8.28001 11.1598 8.28001 11.2398 8.28001 11.3198C8.06025 11.2948 7.84693 11.3214 7.64001 11.3998C7.55321 11.5026 7.49987 11.6226 7.48001 11.7598C7.54942 12.1926 7.60275 12.2059 7.64001 11.7998C7.72001 11.7998 7.80001 11.7998 7.88001 11.7998C7.88001 11.6932 7.88001 11.5865 7.88001 11.4798C8.01337 11.4798 8.14665 11.4798 8.28001 11.4798C8.28001 11.5865 8.28001 11.6932 8.28001 11.7998C10.0793 11.846 11.866 11.8994 13.64 11.9598C11.9194 11.9334 10.2128 11.9601 8.52001 12.0398C8.38665 12.0932 8.25337 12.1465 8.12001 12.1998C7.99862 12.2007 7.90528 12.254 7.84001 12.3598C7.82416 12.5104 7.78416 12.6437 7.72001 12.7598C7.19856 12.8974 6.87856 12.7108 6.76001 12.1998C6.78011 12.0662 6.83343 11.9462 6.92001 11.8398C6.84959 11.7314 6.82293 11.6114 6.84001 11.4798C6.92001 11.4798 7.00001 11.4798 7.08001 11.4798C7.09303 11.1198 7.27969 10.9066 7.64001 10.8398Z"
            fill="#FA9E68" />
        <path fill-rule="evenodd" clip-rule="evenodd"
            d="M19.16 12.04C19.2313 12.0888 19.3113 12.1155 19.4 12.12C19.4533 12.2267 19.5066 12.3334 19.56 12.44C19.5956 12.6692 19.5422 12.8692 19.4 13.04C18.3953 13.6356 17.3819 14.2088 16.36 14.76C16.36 14.7334 16.36 14.7067 16.36 14.68C16.2113 14.2685 16.0513 13.8685 15.88 13.48C15.838 13.1574 15.7313 12.864 15.56 12.6C15.5461 12.4112 15.5194 12.2245 15.48 12.04C16.7066 12.04 17.9333 12.04 19.16 12.04Z"
            fill="#070304" />
        <path fill-rule="evenodd" clip-rule="evenodd"
            d="M8.51999 12.0402C10.2269 12.0268 11.9335 12.0402 13.64 12.0802C13.6853 12.1598 13.7386 12.2264 13.8 12.2802C13.9846 12.7516 14.1446 13.2316 14.28 13.7202C14.4922 14.3052 14.7056 14.8918 14.92 15.4802C14.8571 15.6034 14.7771 15.7101 14.68 15.8002C14.4237 15.8708 14.2103 16.0042 14.04 16.2002C13.7076 16.2995 13.4142 16.4595 13.16 16.6802C12.7307 16.876 12.3307 17.116 11.96 17.4002C10.9782 17.9012 10.6182 18.7012 10.88 19.8002C11.095 20.6418 11.615 21.175 12.44 21.4002C12.4489 21.4495 12.4755 21.4895 12.52 21.5202C14.0766 21.513 15.6233 21.5796 17.16 21.7202C17.2134 21.7735 17.2666 21.8268 17.32 21.8802C17.3352 22.1486 17.4152 22.3886 17.56 22.6002C17.5837 22.7524 17.637 22.8858 17.72 23.0002C17.7524 23.2574 17.8324 23.4974 17.96 23.7202C17.9986 23.9866 17.9186 24.1999 17.72 24.3602C13.6598 25.0832 10.5531 23.6966 8.39999 20.2002C8.14223 19.6322 7.88891 19.0722 7.63999 18.5202C7.63999 18.4935 7.63999 18.4668 7.63999 18.4402C7.08329 16.2998 7.24329 14.2198 8.11999 12.2002C8.25335 12.1468 8.38663 12.0935 8.51999 12.0402Z"
            fill="#050202" />
        <path fill-rule="evenodd" clip-rule="evenodd"
            d="M13.8 12.04C14.3067 12.04 14.8134 12.04 15.32 12.04C15.3671 12.2451 15.4471 12.4317 15.56 12.6C15.5959 12.9037 15.6759 13.197 15.8 13.48C15.8048 13.7862 15.7115 13.8396 15.52 13.64C15.4732 13.0692 15.3799 13.0426 15.24 13.56C15.0596 13.4864 14.9796 13.353 15 13.16C14.92 13.16 14.84 13.16 14.76 13.16C14.76 13.3467 14.76 13.5334 14.76 13.72C14.6257 13.7028 14.5457 13.7562 14.52 13.88C14.4623 13.796 14.3823 13.7426 14.28 13.72C14.1446 13.2315 13.9846 12.7515 13.8 12.28C13.8 12.2 13.8 12.12 13.8 12.04Z"
            fill="#FA7838" />
        <path fill-rule="evenodd" clip-rule="evenodd"
            d="M6.75995 12.2002C6.8785 12.7112 7.1985 12.8978 7.71995 12.7602C7.72657 13.067 7.60657 13.307 7.35995 13.4802C7.33816 13.8841 7.29816 14.2841 7.23995 14.6802C7.10214 14.4978 7.04881 14.2844 7.07995 14.0402C6.99995 14.0402 6.91995 14.0402 6.83995 14.0402C6.85302 14.2288 6.83968 14.4154 6.79995 14.6002C6.76683 14.6368 6.72683 14.6635 6.67995 14.6802C6.5465 14.3397 6.4265 13.9931 6.31995 13.6402C6.28934 13.6847 6.24934 13.7113 6.19995 13.7202C6.25329 13.3202 6.30662 12.9202 6.35995 12.5202C6.59195 12.5276 6.72529 12.4209 6.75995 12.2002Z"
            fill="#FC996E" />
        <path fill-rule="evenodd" clip-rule="evenodd"
            d="M15.5601 12.6001C15.7314 12.8641 15.8381 13.1575 15.8801 13.4801C15.8534 13.4801 15.8267 13.4801 15.8001 13.4801C15.6759 13.1971 15.5959 12.9038 15.5601 12.6001Z"
            fill="#B2623B" />
        <path fill-rule="evenodd" clip-rule="evenodd"
            d="M20.92 11.5601C21.0922 11.89 21.1722 12.25 21.16 12.6401C21.177 13.1089 21.0437 13.5223 20.76 13.8801C20.9349 13.4873 21.0415 13.0739 21.08 12.6401C21.0317 12.2785 20.9783 11.9185 20.92 11.5601Z"
            fill="#D8A355" />
        <path fill-rule="evenodd" clip-rule="evenodd"
            d="M15.7999 13.4802C15.8266 13.4802 15.8533 13.4802 15.8799 13.4802C15.9333 13.7735 15.9866 14.0668 16.0399 14.3602C15.8611 14.3018 15.7144 14.1952 15.5999 14.0402C15.5599 14.0668 15.5199 14.0935 15.4799 14.1202C15.6463 14.5113 15.5396 14.6446 15.1599 14.5202C15.1333 14.3602 15.1066 14.2002 15.0799 14.0402C14.9226 14.021 14.7759 14.0477 14.6399 14.1202C14.5568 14.0606 14.5168 13.9806 14.5199 13.8802C14.5456 13.7563 14.6256 13.703 14.7599 13.7202C14.7599 13.5335 14.7599 13.3468 14.7599 13.1602C14.8399 13.1602 14.9199 13.1602 14.9999 13.1602C14.9795 13.3531 15.0595 13.4865 15.2399 13.5602C15.3798 13.0427 15.4731 13.0694 15.5199 13.6402C15.7114 13.8397 15.8047 13.7863 15.7999 13.4802Z"
            fill="#FC8942" />
        <path fill-rule="evenodd" clip-rule="evenodd"
            d="M8.12009 12.2002C7.24338 14.2198 7.08338 16.2998 7.64009 18.4402C7.51018 18.4514 7.41685 18.398 7.36009 18.2802C7.3202 18.0784 7.33353 17.8784 7.40009 17.6802C7.29074 17.3281 7.23741 16.9681 7.24009 16.6002C7.24009 15.9602 7.24009 15.3202 7.24009 14.6802C7.29829 14.2841 7.33829 13.8841 7.36009 13.4802C7.6067 13.307 7.7267 13.067 7.72009 12.7602C7.78424 12.644 7.82424 12.5108 7.84009 12.3602C7.90536 12.2544 7.99869 12.2011 8.12009 12.2002Z"
            fill="#DC8C73" />
        <path fill-rule="evenodd" clip-rule="evenodd"
            d="M15.8799 13.48C16.0512 13.8685 16.2112 14.2685 16.3599 14.68C16.218 14.6104 16.1113 14.5037 16.0399 14.36C15.9865 14.0666 15.9332 13.7733 15.8799 13.48Z"
            fill="#C1804F" />
        <path fill-rule="evenodd" clip-rule="evenodd"
            d="M19.5601 12.4399C19.7154 12.5608 19.7554 12.7208 19.6801 12.9199C19.4375 13.2023 19.2108 13.4957 19.0001 13.7999C19.1161 13.9079 19.1695 14.0412 19.1601 14.1999C19.4471 14.2783 19.7138 14.3849 19.9601 14.5199C19.5469 14.8468 19.0935 15.1135 18.6001 15.3199C18.4571 15.2971 18.3237 15.3238 18.2001 15.3999C18.006 15.6733 17.7394 15.7799 17.4001 15.7199C17.4001 15.7999 17.4001 15.8799 17.4001 15.9599C17.2567 15.9492 17.1235 15.9759 17.0001 16.0399C16.9414 15.9433 16.9147 15.8367 16.9201 15.7199C16.8135 15.7199 16.7067 15.7199 16.6001 15.7199C16.5889 15.59 16.6423 15.4967 16.7601 15.4399C16.6868 15.41 16.6201 15.37 16.5601 15.3199C16.5006 15.1279 16.4339 14.9413 16.3601 14.7599C17.382 14.2087 18.3954 13.6355 19.4001 13.0399C19.5423 12.8691 19.5957 12.6691 19.5601 12.4399Z"
            fill="#F9AA4A" />
        <path fill-rule="evenodd" clip-rule="evenodd"
            d="M7.23997 14.6801C7.23997 15.3201 7.23997 15.9601 7.23997 16.6001C7.12535 16.8032 7.01869 17.0165 6.91997 17.2401C6.73837 16.3017 6.53837 15.3684 6.31997 14.4401C6.28008 14.7323 6.26674 15.0256 6.27997 15.3201C6.1733 15.3201 6.06663 15.3201 5.95997 15.3201C5.95997 15.7468 5.95997 16.1735 5.95997 16.6001C5.90663 16.6001 5.8533 16.6001 5.79997 16.6001C5.79471 15.852 5.82137 15.1053 5.87997 14.3601C5.94127 14.1854 5.9946 13.9987 6.03997 13.8001C6.07652 13.7363 6.12985 13.7097 6.19997 13.7201C6.24936 13.7113 6.28936 13.6846 6.31997 13.6401C6.42652 13.993 6.54652 14.3397 6.67997 14.6801C6.72685 14.6634 6.76685 14.6367 6.79997 14.6001C6.83969 14.4153 6.85303 14.2287 6.83997 14.0401C6.91997 14.0401 6.99997 14.0401 7.07997 14.0401C7.04882 14.2844 7.10215 14.4977 7.23997 14.6801Z"
            fill="#FC9575" />
        <path fill-rule="evenodd" clip-rule="evenodd"
            d="M25.4001 12.1201C25.5294 12.2498 25.6228 12.4098 25.6801 12.6001C25.923 13.2998 26.0697 14.0198 26.1201 14.7601C26.1619 15.9715 26.0686 17.1715 25.8401 18.3601C25.6997 18.4537 25.6197 18.5871 25.6001 18.7601C25.5649 18.634 25.4982 18.5273 25.4001 18.4401C25.5243 18.0967 25.551 17.75 25.4801 17.4001C25.4144 17.6359 25.3744 17.8759 25.3601 18.1201C25.3117 18.2786 25.2317 18.3053 25.1201 18.2001C25.0802 17.8544 25.0668 17.5078 25.0801 17.1601C25.0785 16.6125 25.1051 16.0525 25.1601 15.4801C25.0892 14.9256 24.9825 14.3788 24.8401 13.8401C24.8534 13.7735 24.8667 13.7068 24.8801 13.6401C25.0289 13.89 25.1355 14.1567 25.2001 14.4401C25.3567 13.9504 25.5034 13.4571 25.6401 12.9601C25.6164 12.8091 25.5764 12.6624 25.5201 12.5201C25.4814 12.596 25.4682 12.676 25.4801 12.7601C25.4001 12.7601 25.3201 12.7601 25.2401 12.7601C25.2556 12.5337 25.309 12.3204 25.4001 12.1201Z"
            fill="#FBB733" />
        <path fill-rule="evenodd" clip-rule="evenodd"
            d="M14.28 13.7202C14.3823 13.7428 14.4623 13.7961 14.52 13.8802C14.5169 13.9807 14.5569 14.0607 14.64 14.1202C14.7759 14.0477 14.9227 14.0211 15.08 14.0402C15.1067 14.2002 15.1334 14.3602 15.16 14.5202C15.5397 14.6447 15.6463 14.5113 15.48 14.1202C15.52 14.0936 15.56 14.0669 15.6 14.0402C15.7145 14.1953 15.8612 14.3019 16.04 14.3602C16.1115 14.504 16.2181 14.6106 16.36 14.6802C16.36 14.7069 16.36 14.7336 16.36 14.7602C16.4339 14.9416 16.5005 15.1282 16.56 15.3202C16.62 15.3703 16.6867 15.4103 16.76 15.4402C16.6422 15.497 16.5888 15.5903 16.6 15.7202C16.7067 15.7202 16.8134 15.7202 16.92 15.7202C16.9147 15.8369 16.9413 15.9436 17 16.0402C16.902 16.0924 16.8487 16.1857 16.84 16.3202C16.9745 16.8013 17.1479 17.2681 17.36 17.7202C17.4239 17.8609 17.4105 17.9943 17.32 18.1202C17.2491 18.0542 17.2225 17.9742 17.24 17.8802C17.16 17.8802 17.08 17.8802 17 17.8802C17.1128 18.1562 17.1661 18.4495 17.16 18.7602C17.065 18.8293 16.9716 18.9093 16.88 19.0002C16.8607 18.7771 16.8074 18.5637 16.72 18.3602C16.7039 18.5007 16.6639 18.634 16.6 18.7602C16.5049 18.9093 16.3983 19.0426 16.28 19.1602C16.0957 18.6657 15.9223 18.159 15.76 17.6402C15.7027 17.4499 15.6094 17.2899 15.48 17.1602C15.493 16.9981 15.4796 16.8381 15.44 16.6802C15.2839 16.4089 15.1772 16.1156 15.12 15.8002C14.9779 15.7173 14.8313 15.7173 14.68 15.8002C14.7771 15.7101 14.8571 15.6035 14.92 15.4802C14.7056 14.8919 14.4923 14.3053 14.28 13.7202Z"
            fill="#FAA056" />
        <path fill-rule="evenodd" clip-rule="evenodd"
            d="M5.87997 14.3599C5.82138 15.1051 5.79471 15.8517 5.79997 16.5999C5.79997 16.7332 5.79997 16.8665 5.79997 16.9999C5.7467 16.6408 5.72003 16.2675 5.71997 15.8799C5.70268 15.3535 5.75602 14.8468 5.87997 14.3599Z"
            fill="#C47F6D" />
        <path fill-rule="evenodd" clip-rule="evenodd"
            d="M7.23996 16.5999C7.23728 16.9679 7.29062 17.3279 7.39996 17.6799C7.33341 17.8782 7.32007 18.0782 7.35996 18.2799C7.41673 18.3978 7.51006 18.4511 7.63996 18.4399C7.63996 18.4666 7.63996 18.4933 7.63996 18.5199C7.67676 18.7981 7.70343 19.0781 7.71996 19.3599C7.72869 19.5759 7.68869 19.7759 7.59996 19.9599C7.43301 19.6619 7.44635 19.3819 7.63996 19.1199C7.36696 18.9355 7.07363 18.7887 6.75996 18.6799C6.63281 18.4463 6.51281 18.2063 6.39996 17.9599C6.3733 18.0399 6.34662 18.1199 6.31996 18.1999C6.10085 17.6896 5.98085 17.1563 5.95996 16.5999C5.95996 16.1733 5.95996 15.7466 5.95996 15.3199C6.06662 15.3199 6.1733 15.3199 6.27996 15.3199C6.26674 15.0254 6.28007 14.7321 6.31996 14.4399C6.53836 15.3682 6.73836 16.3015 6.91996 17.2399C7.01868 17.0163 7.12535 16.803 7.23996 16.5999Z"
            fill="#FC917D" />
        <path fill-rule="evenodd" clip-rule="evenodd"
            d="M14.04 16.2002C13.921 16.3686 13.761 16.502 13.56 16.6002C13.4533 16.7856 13.5066 16.919 13.72 17.0002C13.7648 17.1885 13.8182 17.3752 13.88 17.5602C14.077 17.5811 14.317 17.5811 14.6 17.5602C14.5825 17.4662 14.6091 17.3862 14.68 17.3202C14.9168 17.2392 15.1302 17.1325 15.32 17.0002C15.32 17.0802 15.32 17.1602 15.32 17.2402C14.9042 17.511 14.4775 17.751 14.04 17.9602C13.7441 17.8793 13.4507 17.8793 13.16 17.9602C12.8828 17.8855 12.8562 17.7655 13.08 17.6002C13.0154 17.4637 12.9087 17.3971 12.76 17.4002C12.76 17.2668 12.76 17.1336 12.76 17.0002C12.9875 17.0128 13.1209 16.9061 13.16 16.6802C13.4142 16.4596 13.7076 16.2996 14.04 16.2002Z"
            fill="#F5834A" />
        <path fill-rule="evenodd" clip-rule="evenodd"
            d="M15.48 17.16C15.4266 17.1866 15.3733 17.2133 15.32 17.24C15.32 17.16 15.32 17.08 15.32 17C15.1301 17.1323 14.9168 17.2389 14.68 17.32C14.6091 17.386 14.5825 17.466 14.6 17.56C14.3169 17.5808 14.0769 17.5808 13.88 17.56C13.8181 17.3749 13.7648 17.1883 13.72 17C13.5065 16.9188 13.4533 16.7854 13.56 16.6C13.761 16.5017 13.921 16.3684 14.04 16.2C14.2103 16.004 14.4237 15.8706 14.68 15.8C14.8313 15.7171 14.9779 15.7171 15.12 15.8C15.1772 16.1153 15.2838 16.4087 15.44 16.68C15.4796 16.8378 15.4929 16.9978 15.48 17.16Z"
            fill="#FB7939" />
        <path fill-rule="evenodd" clip-rule="evenodd"
            d="M24.28 13.48C24.4445 13.6192 24.5511 13.8058 24.6 14.04C24.6796 14.4633 24.7063 14.89 24.68 15.32C24.6933 16.0671 24.68 16.8138 24.64 17.56C24.5834 17.6305 24.5167 17.6837 24.44 17.72C24.6876 16.2941 24.6343 14.8809 24.28 13.48Z"
            fill="#D69D42" />
        <path fill-rule="evenodd" clip-rule="evenodd"
            d="M15.4801 17.1602C15.6094 17.2898 15.7028 17.4498 15.7601 17.6402C15.9224 18.159 16.0957 18.6657 16.2801 19.1602C16.3491 19.3138 16.4024 19.4738 16.4401 19.6402C16.4401 19.7202 16.4401 19.8002 16.4401 19.8802C15.1805 19.9055 13.9272 19.8789 12.6801 19.8002C12.4101 19.633 12.3168 19.393 12.4001 19.0802C12.539 18.8742 12.7124 18.7142 12.9201 18.6002C13.3201 18.427 13.6934 18.2137 14.0401 17.9602C14.4776 17.751 14.9042 17.511 15.3201 17.2402C15.3734 17.2135 15.4267 17.1868 15.4801 17.1602Z"
            fill="#0B0404" />
        <path fill-rule="evenodd" clip-rule="evenodd"
            d="M13.16 16.6802C13.1209 16.9061 12.9875 17.0127 12.76 17.0002C12.76 17.1335 12.76 17.2668 12.76 17.4002C12.9087 17.3971 13.0153 17.4637 13.08 17.6002C12.8561 17.7655 12.8828 17.8855 13.16 17.9602C13.4507 17.8793 13.7441 17.8793 14.04 17.9602C13.6933 18.2137 13.32 18.4271 12.92 18.6002C12.8101 18.5876 12.7034 18.601 12.6 18.6402C12.4245 18.8558 12.2645 19.0824 12.12 19.3202C11.9 19.3992 11.6866 19.3726 11.48 19.2402C11.6666 19.1868 11.8533 19.1335 12.04 19.0802C11.9185 18.7808 11.9718 18.5142 12.2 18.2802C11.8963 18.2486 11.6563 18.1153 11.48 17.8802C11.6771 17.8543 11.8905 17.8409 12.12 17.8402C12.0165 17.801 11.9098 17.7876 11.8 17.8002C11.7913 17.6391 11.8446 17.5058 11.96 17.4002C12.3307 17.116 12.7307 16.876 13.16 16.6802Z"
            fill="#F99667" />
        <path fill-rule="evenodd" clip-rule="evenodd"
            d="M18.6001 15.3199C18.0363 15.6288 17.503 15.9888 17.0001 16.3999C17.3245 17.2316 17.6178 18.0716 17.8801 18.9199C17.7714 18.9605 17.6914 19.0405 17.6401 19.1599C17.6134 19.1333 17.5867 19.1065 17.5601 19.0799C17.6891 18.8116 17.6625 18.5716 17.4801 18.3599C17.4176 18.4582 17.3776 18.5649 17.3601 18.6799C17.3064 18.7401 17.2398 18.7668 17.1601 18.7599C17.1662 18.4492 17.1129 18.1559 17.0001 17.8799C17.0801 17.8799 17.1601 17.8799 17.2401 17.8799C17.2226 17.9739 17.2492 18.0539 17.3201 18.1199C17.4106 17.994 17.4239 17.8606 17.3601 17.7199C17.1479 17.2677 16.9746 16.801 16.8401 16.3199C16.8487 16.1854 16.9021 16.0921 17.0001 16.0399C17.1234 15.9758 17.2567 15.9492 17.4001 15.9599C17.4001 15.8799 17.4001 15.7999 17.4001 15.7199C17.7394 15.7799 18.006 15.6733 18.2001 15.3999C18.3237 15.3237 18.457 15.2971 18.6001 15.3199Z"
            fill="#E69D61" />
        <path fill-rule="evenodd" clip-rule="evenodd"
            d="M17.16 18.7599C17.2397 18.7667 17.3063 18.74 17.36 18.6799C17.3775 18.5648 17.4175 18.4582 17.48 18.3599C17.6624 18.5715 17.6891 18.8115 17.56 19.0799C17.5867 19.1065 17.6134 19.1332 17.64 19.1599C17.6913 19.0404 17.7713 18.9604 17.88 18.9199C17.88 18.9465 17.88 18.9732 17.88 18.9999C17.9036 19.2981 17.9569 19.5915 18.04 19.8799C18.0947 19.9089 18.148 19.9355 18.2 19.9599C18.3713 20.0603 18.4246 20.1936 18.36 20.3599C18.426 20.4307 18.506 20.4574 18.6 20.4399C18.5772 20.2968 18.6039 20.1635 18.68 20.0399C18.6854 20.2184 18.752 20.4051 18.88 20.5999C18.9609 20.6668 19.0543 20.6935 19.16 20.6799C19.16 20.8932 19.16 21.1065 19.16 21.3199C19.0096 21.2982 18.903 21.3515 18.84 21.4799C18.8263 21.5592 18.853 21.6125 18.92 21.6399C18.92 21.6665 18.92 21.6932 18.92 21.7199C18.7962 21.6942 18.7428 21.6142 18.76 21.4799C18.28 21.4799 17.8 21.4799 17.32 21.4799C17.2487 21.3366 17.1687 21.1899 17.08 21.0399C17.2979 20.9181 17.4579 20.7447 17.56 20.5199C17.4185 20.4297 17.3118 20.4697 17.24 20.6399C16.8125 20.6545 16.5191 20.4545 16.36 20.0399C16.4134 20.0399 16.44 20.0132 16.44 19.9599C16.5467 19.8532 16.5467 19.7465 16.44 19.6399C16.4023 19.4735 16.3491 19.3135 16.28 19.1599C16.3983 19.0423 16.5049 18.9089 16.6 18.7599C16.6639 18.6336 16.7039 18.5003 16.72 18.3599C16.8074 18.5634 16.8607 18.7767 16.88 18.9999C16.9716 18.909 17.065 18.829 17.16 18.7599Z"
            fill="#FCA05F" />
        <path fill-rule="evenodd" clip-rule="evenodd"
            d="M5.95996 17.8799C6.12754 18.3704 6.2742 18.8772 6.39996 19.3999C6.45742 19.1812 6.57742 19.1279 6.75996 19.2399C6.56241 19.4938 6.54908 19.7604 6.71996 20.0399C6.78436 19.8478 6.85102 19.8612 6.91996 20.0799C6.86138 20.2689 6.86138 20.4689 6.91996 20.6799C6.35614 19.8423 6.03614 18.909 5.95996 17.8799Z"
            fill="#DE8783" />
        <path fill-rule="evenodd" clip-rule="evenodd"
            d="M16.4399 19.6401C16.5466 19.7468 16.5466 19.8535 16.4399 19.9601C15.1571 20.0122 13.9038 19.9589 12.6799 19.8001C13.9271 19.8789 15.1804 19.9055 16.4399 19.8801C16.4399 19.8001 16.4399 19.7201 16.4399 19.6401Z"
            fill="#AD735C" />
        <path fill-rule="evenodd" clip-rule="evenodd"
            d="M17.8799 19C18.0222 19.2732 18.1289 19.5665 18.1999 19.88C19.9599 19.88 21.7199 19.88 23.4799 19.88C21.7337 19.9598 19.9737 19.9865 18.1999 19.96C18.1479 19.9357 18.0945 19.909 18.0399 19.88C17.9568 19.5916 17.9035 19.2982 17.8799 19Z"
            fill="#B37E52" />
        <path fill-rule="evenodd" clip-rule="evenodd"
            d="M11.48 17.8799C11.6563 18.115 11.8963 18.2483 12.2 18.2799C11.9718 18.5139 11.9186 18.7805 12.04 19.0799C11.8534 19.1332 11.6666 19.1865 11.48 19.2399C11.6866 19.3723 11.9 19.3989 12.12 19.3199C12.2645 19.0821 12.4245 18.8555 12.6 18.6399C12.7034 18.6007 12.8102 18.5873 12.92 18.5999C12.7123 18.714 12.539 18.874 12.4 19.0799C12.3167 19.3927 12.41 19.6327 12.68 19.7999C13.9038 19.9586 15.1571 20.012 16.44 19.9599C16.44 20.0132 16.4134 20.0399 16.36 20.0399C15.3693 20.0576 14.3826 20.1243 13.4 20.2399C14.0394 20.3384 14.6794 20.4318 15.32 20.5199C14.8412 20.5937 14.3612 20.6604 13.88 20.7199C13.9978 20.7767 14.0512 20.87 14.04 20.9999C14.3877 20.9866 14.7343 21 15.08 21.0399C14.9466 21.0665 14.8134 21.0932 14.68 21.1199C15 21.1732 15 21.2265 14.68 21.2799C15.5372 21.2681 16.3639 21.3348 17.16 21.4799C17.1334 21.4799 17.1066 21.4799 17.08 21.4799C15.6539 21.4001 14.2139 21.3735 12.76 21.3999C12.76 21.3199 12.76 21.2399 12.76 21.1599C12.551 21.002 12.311 20.882 12.04 20.7999C12.1649 20.7246 12.2716 20.6312 12.36 20.5199C12.294 20.449 12.214 20.4224 12.12 20.4399C12.12 20.3332 12.12 20.2265 12.12 20.1199C12.0142 20.1335 11.9209 20.1068 11.84 20.0399C11.7512 20.1628 11.6312 20.2161 11.48 20.1999C11.48 20.2799 11.48 20.3599 11.48 20.4399C11.574 20.4224 11.654 20.449 11.72 20.5199C11.5964 20.596 11.463 20.6227 11.32 20.5999C11.333 20.4113 11.3198 20.2247 11.28 20.0399C11.0261 19.6751 10.9461 19.2751 11.04 18.8399C11.1947 18.5205 11.3414 18.2005 11.48 17.8799Z"
            fill="#FA9873" />
        <path fill-rule="evenodd" clip-rule="evenodd"
            d="M16.3599 20.04C16.519 20.4547 16.8124 20.6547 17.2399 20.64C17.3117 20.4699 17.4184 20.4299 17.5599 20.52C17.4578 20.7449 17.2978 20.9183 17.0799 21.04C17.1686 21.1901 17.2486 21.3368 17.3199 21.48C17.3199 21.6134 17.3199 21.7467 17.3199 21.88C17.2665 21.8267 17.2133 21.7734 17.1599 21.72C17.1599 21.64 17.1599 21.56 17.1599 21.48C16.3638 21.3349 15.5371 21.2683 14.6799 21.28C14.9999 21.2267 14.9999 21.1734 14.6799 21.12C14.8133 21.0934 14.9465 21.0667 15.0799 21.04C14.7342 21.0001 14.3876 20.9868 14.0399 21C14.0511 20.8701 13.9977 20.7768 13.8799 20.72C14.3611 20.6605 14.8411 20.5939 15.3199 20.52C14.6793 20.432 14.0393 20.3386 13.3999 20.24C14.3825 20.1244 15.3692 20.0578 16.3599 20.04Z"
            fill="#FC9C68" />
        <path fill-rule="evenodd" clip-rule="evenodd"
            d="M22.9999 20.0402C23.0478 20.2536 23.1812 20.4003 23.3999 20.4802C23.6274 20.5158 23.854 20.5558 24.0799 20.6002C24.2445 20.4964 24.4178 20.4564 24.5999 20.4802C24.4592 20.5608 24.3658 20.6808 24.3199 20.8402C23.8842 20.7357 23.4442 20.7357 22.9999 20.8402C23.551 21.0259 24.111 21.0526 24.6799 20.9202C24.5936 21.0836 24.4602 21.1902 24.2799 21.2402C23.8568 21.3192 23.4302 21.3726 22.9999 21.4002C22.5878 21.334 22.1612 21.294 21.7199 21.2802C21.3999 21.2268 21.3999 21.1735 21.7199 21.1202C21.0878 20.9877 20.4478 20.9077 19.7999 20.8802C19.8675 20.7555 19.8142 20.6755 19.6399 20.6402C20.3317 20.567 21.025 20.5136 21.7199 20.4802C21.0533 20.4535 20.3866 20.4268 19.7199 20.4002C19.9066 20.3735 20.0933 20.3468 20.2799 20.3202C20.2266 20.2668 20.1733 20.2135 20.1199 20.1602C19.7999 20.1335 19.4799 20.1068 19.1599 20.0802C20.4397 20.0402 21.7197 20.0268 22.9999 20.0402Z"
            fill="#FDA852" />
        <path fill-rule="evenodd" clip-rule="evenodd"
            d="M11.9601 17.3999C11.8447 17.5055 11.7914 17.6388 11.8001 17.7999C11.9099 17.7873 12.0166 17.8007 12.1201 17.8399C11.8905 17.8406 11.6772 17.854 11.4801 17.8799C11.3414 18.2005 11.1948 18.5205 11.0401 18.8399C10.9461 19.2751 11.0261 19.6751 11.2801 20.0399C11.3198 20.2247 11.3331 20.4113 11.3201 20.5999C11.4631 20.6227 11.5965 20.5961 11.7201 20.5199C11.6541 20.449 11.5741 20.4224 11.4801 20.4399C11.4801 20.3599 11.4801 20.2799 11.4801 20.1999C11.6313 20.2161 11.7513 20.1629 11.8401 20.0399C11.9209 20.1069 12.0143 20.1335 12.1201 20.1199C12.1201 20.2265 12.1201 20.3333 12.1201 20.4399C12.2141 20.4224 12.2941 20.449 12.3601 20.5199C12.2717 20.6313 12.1649 20.7246 12.0401 20.7999C12.311 20.8821 12.551 21.0021 12.7601 21.1599C12.7601 21.2399 12.7601 21.3199 12.7601 21.3999C14.214 21.3735 15.654 21.4001 17.0801 21.4799C15.5297 21.5046 13.983 21.4779 12.4401 21.3999C11.6151 21.1748 11.0951 20.6415 10.8801 19.7999C10.6182 18.7009 10.9782 17.9009 11.9601 17.3999Z"
            fill="#ED9178" />
        <path fill-rule="evenodd" clip-rule="evenodd"
            d="M26.12 14.7598C26.1733 15.1188 26.1999 15.4921 26.2 15.8798C26.2225 17.3597 25.9425 18.773 25.36 20.1198C25.1874 20.4425 24.9606 20.7092 24.68 20.9198C24.111 21.0522 23.551 21.0255 23 20.8398C23.4443 20.7353 23.8843 20.7353 24.32 20.8398C24.3659 20.6804 24.4593 20.5604 24.6 20.4798C24.4179 20.456 24.2446 20.496 24.08 20.5998C23.8541 20.5554 23.6274 20.5154 23.4 20.4798C23.1813 20.3999 23.0479 20.2532 23 20.0398C23.7122 20.0616 24.1255 19.715 24.24 18.9998C24.2796 18.8419 24.293 18.6819 24.28 18.5198C24.3334 18.2531 24.3866 17.9864 24.44 17.7198C24.5166 17.6835 24.5834 17.6302 24.64 17.5598C24.68 16.8136 24.6933 16.0669 24.68 15.3198C24.76 15.3198 24.84 15.3198 24.92 15.3198C24.9067 15.907 24.92 16.4937 24.96 17.0798C24.9906 17.1242 25.0306 17.1509 25.08 17.1598C25.0667 17.5074 25.0801 17.8541 25.12 18.1998C25.2316 18.305 25.3116 18.2782 25.36 18.1198C25.3743 17.8755 25.4143 17.6355 25.48 17.3998C25.551 17.7497 25.5242 18.0963 25.4 18.4398C25.4982 18.527 25.5648 18.6337 25.6 18.7598C25.6196 18.5867 25.6996 18.4534 25.84 18.3598C26.0686 17.1711 26.1618 15.9711 26.12 14.7598Z"
            fill="#FAAE42" />
        <path fill-rule="evenodd" clip-rule="evenodd"
            d="M24.28 18.52C24.2929 18.6822 24.2796 18.8422 24.24 19C24.1255 19.7152 23.7121 20.0619 23 20.04C21.7197 20.0267 20.4397 20.04 19.16 20.08C19.48 20.1067 19.8 20.1334 20.12 20.16C20.1733 20.2134 20.2266 20.2667 20.28 20.32C20.0933 20.3467 19.9066 20.3734 19.72 20.4C20.3866 20.4267 21.0533 20.4534 21.72 20.48C21.0251 20.5135 20.3317 20.5668 19.64 20.64C19.8143 20.6754 19.8676 20.7554 19.8 20.88C20.4479 20.9075 21.0879 20.9875 21.72 21.12C21.4 21.1734 21.4 21.2267 21.72 21.28C22.1612 21.2939 22.5879 21.3339 23 21.4C21.706 21.4264 20.426 21.3997 19.16 21.32C19.16 21.1067 19.16 20.8934 19.16 20.68C19.0542 20.6936 18.9608 20.667 18.88 20.6C18.752 20.4053 18.6853 20.2186 18.68 20.04C18.6038 20.1636 18.5772 20.297 18.6 20.44C18.506 20.4575 18.426 20.4309 18.36 20.36C18.4245 20.1938 18.3712 20.0604 18.2 19.96C19.9738 19.9865 21.7338 19.9598 23.48 19.88C23.575 19.8109 23.6684 19.7309 23.76 19.64C23.9595 19.2683 24.1328 18.8949 24.28 18.52Z"
            fill="#F9A45D" />
        <path fill-rule="evenodd" clip-rule="evenodd"
            d="M24.2801 21.2402C24.0506 21.3314 23.8106 21.4114 23.5601 21.4802C21.9867 21.4802 20.4134 21.4802 18.8401 21.4802C18.903 21.3519 19.0097 21.2986 19.1601 21.3202C20.4261 21.3999 21.7061 21.4266 23.0001 21.4002C23.4303 21.3726 23.857 21.3193 24.2801 21.2402Z"
            fill="#CF9569" />
        <path fill-rule="evenodd" clip-rule="evenodd"
            d="M12.4399 21.3999C13.9829 21.4779 15.5295 21.5046 17.0799 21.4799C17.1066 21.4799 17.1333 21.4799 17.1599 21.4799C17.1599 21.5599 17.1599 21.6399 17.1599 21.7199C15.6232 21.5793 14.0766 21.5127 12.5199 21.5199C12.4755 21.4893 12.4488 21.4493 12.4399 21.3999Z"
            fill="#240200" />
        <path fill-rule="evenodd" clip-rule="evenodd"
            d="M18.8399 21.48C20.4133 21.48 21.9866 21.48 23.5599 21.48C22.0133 21.5333 20.4666 21.5866 18.9199 21.64C18.8529 21.6126 18.8262 21.5593 18.8399 21.48Z"
            fill="#230100" />
        <path fill-rule="evenodd" clip-rule="evenodd"
            d="M17.3201 21.48C17.8001 21.48 18.2801 21.48 18.7601 21.48C18.7429 21.6143 18.7962 21.6943 18.9201 21.72C18.9902 22.1441 19.0436 22.5708 19.0801 23C18.9734 23 18.8667 23 18.7601 23C18.7067 22.68 18.6534 22.68 18.6001 23C18.4943 23.0136 18.4009 22.9869 18.3201 22.92C18.3041 22.3911 18.1708 22.3377 17.9201 22.76C17.8934 22.6 17.8667 22.44 17.8401 22.28C17.8009 22.3834 17.7875 22.4901 17.8001 22.6C17.7201 22.6 17.6401 22.6 17.5601 22.6C17.4153 22.3884 17.3353 22.1484 17.3201 21.88C17.3201 21.7466 17.3201 21.6133 17.3201 21.48Z"
            fill="#F97838" />
        <path fill-rule="evenodd" clip-rule="evenodd"
            d="M5.80005 16.6001C5.85338 16.6001 5.90671 16.6001 5.96005 16.6001C5.98094 17.1565 6.10094 17.6898 6.32005 18.2001C6.34671 18.1201 6.37338 18.0401 6.40005 17.9601C6.5129 18.2064 6.6329 18.4464 6.76005 18.6801C7.07372 18.7889 7.36705 18.9356 7.64005 19.1201C7.44643 19.3821 7.4331 19.6621 7.60005 19.9601C7.68878 19.7761 7.72878 19.5761 7.72005 19.3601C7.70351 19.0783 7.67685 18.7983 7.64005 18.5201C7.88897 19.0721 8.14229 19.6321 8.40005 20.2001C10.5532 23.6965 13.6599 25.0831 17.72 24.3601C17.6078 24.4746 17.4745 24.5679 17.32 24.6401C16.6539 24.6801 15.9872 24.6934 15.32 24.6801C14.8934 24.6801 14.4667 24.6801 14.04 24.6801C14.04 24.7867 14.04 24.8935 14.04 25.0001C14.3487 25.1072 14.6687 25.1739 15 25.2001C14.6998 25.345 14.3798 25.4383 14.04 25.4801C14.2758 25.5458 14.5158 25.5858 14.76 25.6001C14.5158 25.6144 14.2758 25.6544 14.04 25.7201C14.458 25.8446 14.8847 25.9246 15.32 25.9601C15.2359 26.1006 15.1025 26.1539 14.92 26.1201C13.093 25.9917 11.4664 25.3784 10.04 24.2801C10.0576 24.1861 10.0309 24.1061 9.96005 24.0401C9.62013 23.9147 9.38013 23.688 9.24005 23.3601C8.85437 23.2953 8.64101 23.0686 8.60005 22.6801C8.49341 22.6801 8.38669 22.6801 8.28005 22.6801C7.92927 22.3427 7.62261 21.9694 7.36005 21.5601C7.17032 21.2873 7.02366 20.9939 6.92005 20.6801C6.86147 20.4691 6.86147 20.2691 6.92005 20.0801C6.85111 19.8614 6.78445 19.848 6.72005 20.0401C6.54917 19.7607 6.5625 19.494 6.76005 19.2401C6.57751 19.1281 6.45751 19.1814 6.40005 19.4001C6.27429 18.8774 6.12762 18.3707 5.96005 17.8801C5.86506 17.6044 5.81172 17.3111 5.80005 17.0001C5.80005 16.8667 5.80005 16.7335 5.80005 16.6001Z"
            fill="#F88C86" />
        <path fill-rule="evenodd" clip-rule="evenodd"
            d="M18.9201 21.7202C19.0941 22.1347 19.2541 22.5613 19.4001 23.0002C19.3342 23.2784 19.2942 23.5717 19.2801 23.8802C19.1785 23.7678 19.1385 23.6345 19.1601 23.4802C19.0013 23.4896 18.8681 23.4362 18.7601 23.3202C18.6501 23.4171 18.5301 23.4971 18.4001 23.5602C18.1564 23.3822 17.9297 23.1955 17.7201 23.0002C17.6371 22.8858 17.5837 22.7525 17.5601 22.6002C17.6401 22.6002 17.7201 22.6002 17.8001 22.6002C17.7875 22.4904 17.8009 22.3837 17.8401 22.2802C17.8667 22.4402 17.8934 22.6002 17.9201 22.7602C18.1708 22.338 18.3041 22.3913 18.3201 22.9202C18.4009 22.9872 18.4943 23.0138 18.6001 23.0002C18.6534 22.6802 18.7067 22.6802 18.7601 23.0002C18.8667 23.0002 18.9734 23.0002 19.0801 23.0002C19.0436 22.571 18.9902 22.1443 18.9201 21.7202Z"
            fill="#F2824B" />
        <path fill-rule="evenodd" clip-rule="evenodd"
            d="M8.28003 22.6802C8.38667 22.6802 8.49339 22.6802 8.60003 22.6802C8.64099 23.0687 8.85435 23.2954 9.24003 23.3602C9.38011 23.6881 9.62011 23.9148 9.96003 24.0402C10.0309 24.1062 10.0575 24.1862 10.04 24.2802C9.66267 24.0772 9.31595 23.8239 9.00003 23.5202C8.71147 23.2723 8.47147 22.9923 8.28003 22.6802Z"
            fill="#DF8389" />
        <path fill-rule="evenodd" clip-rule="evenodd"
            d="M19.3999 23.1602C19.5177 23.3615 19.5711 23.5882 19.5599 23.8402C19.5594 24.0028 19.5328 24.1494 19.4799 24.2802C19.4767 23.9047 19.4501 23.5314 19.3999 23.1602Z"
            fill="#BC7F62" />
        <path fill-rule="evenodd" clip-rule="evenodd"
            d="M17.72 23C17.9297 23.1953 18.1563 23.382 18.4 23.56C18.5301 23.4969 18.6501 23.4169 18.76 23.32C18.868 23.436 19.0013 23.4894 19.16 23.48C19.1385 23.6343 19.1785 23.7676 19.28 23.88C19.2941 23.5715 19.3341 23.2782 19.4 23C19.4 23.0534 19.4 23.1066 19.4 23.16C19.4501 23.5313 19.4768 23.9046 19.48 24.28C19.3963 24.4432 19.2629 24.5498 19.08 24.6C18.7912 24.5674 18.4978 24.554 18.2 24.56C18.1257 24.529 18.0724 24.4756 18.04 24.4C18.2663 24.1337 18.2396 23.907 17.96 23.72C17.8324 23.4972 17.7524 23.2572 17.72 23Z"
            fill="#FB9565" />
        <path fill-rule="evenodd" clip-rule="evenodd"
            d="M17.9599 23.7202C18.2395 23.9073 18.2662 24.1339 18.0399 24.4002C18.0723 24.4758 18.1257 24.5292 18.1999 24.5602C18.4978 24.5542 18.7911 24.5676 19.0799 24.6002C19.2629 24.5501 19.3962 24.4434 19.4799 24.2802C19.3984 24.9244 19.0784 25.4044 18.5199 25.7202C17.8868 25.9132 17.2468 26.0465 16.5999 26.1202C16.0399 26.2269 15.4799 26.2269 14.9199 26.1202C15.1024 26.1541 15.2358 26.1007 15.3199 25.9602C15.7466 25.9602 16.1733 25.9602 16.5999 25.9602C16.5999 25.8536 16.5999 25.7469 16.5999 25.6402C16.7885 25.6533 16.9751 25.64 17.1599 25.6002C17.0449 25.5827 16.9382 25.5427 16.8399 25.4802C17.0125 25.377 17.1991 25.3103 17.3999 25.2802C17.1613 25.1139 16.8946 25.0472 16.5999 25.0802C16.5999 25.0002 16.5999 24.9202 16.5999 24.8402C16.1382 24.8893 15.7116 24.8359 15.3199 24.6802C15.9871 24.6935 16.6538 24.6802 17.3199 24.6402C17.4744 24.5681 17.6077 24.4747 17.7199 24.3602C17.9185 24.2 17.9985 23.9867 17.9599 23.7202Z"
            fill="#F89772" />
        <path fill-rule="evenodd" clip-rule="evenodd"
            d="M15.32 24.6802C15.7117 24.8359 16.1384 24.8892 16.6 24.8402C16.6 24.9202 16.6 25.0002 16.6 25.0802C16.8947 25.0471 17.1614 25.1139 17.4 25.2802C17.1992 25.3103 17.0126 25.377 16.84 25.4802C16.9384 25.5427 17.045 25.5827 17.16 25.6002C16.9752 25.6399 16.7886 25.6532 16.6 25.6402C16.6 25.7468 16.6 25.8535 16.6 25.9602C16.1734 25.9602 15.7467 25.9602 15.32 25.9602C14.8847 25.9247 14.458 25.8447 14.04 25.7202C14.2758 25.6545 14.5158 25.6145 14.76 25.6002C14.5158 25.5859 14.2758 25.5459 14.04 25.4802C14.3798 25.4384 14.6998 25.3451 15 25.2002C14.6687 25.174 14.3487 25.1073 14.04 25.0002C14.04 24.8935 14.04 24.7868 14.04 24.6802C14.4667 24.6802 14.8934 24.6802 15.32 24.6802Z"
            fill="#FC937B" />
        <path fill-rule="evenodd" clip-rule="evenodd"
            d="M18.5201 25.7202C18.3783 25.8316 18.2183 25.9249 18.0401 26.0002C17.5629 26.0773 17.0829 26.1173 16.6001 26.1202C17.247 26.0465 17.887 25.9132 18.5201 25.7202Z"
            fill="#D39279" />
    </g>
    <defs>
        <clipPath id="clip0_5147_45">
            <rect width="32" height="32" fill="white" />
        </clipPath>
    </defs>
</svg>